<svg width="131" height="43" viewBox="0 0 131 43" fill="none" xmlns="http://www.w3.org/2000/svg">
<g filter="url(#filter0_d_1_8)">
<path d="M20.17 6.904V29.987H23.204V1.287H18.735L14.184 24.206L9.469 1.287H5V29.987H7.788V7.109L12.544 29.946H15.619L20.17 6.904Z" fill="white"/>
<path d="M29.6999 13.997V4.198H38.3099V1.287H26.5019V29.987H38.3099V27.076H29.6999V16.867H36.7109V13.997H29.6999Z" fill="white"/>
<path d="M52.8794 4.198V29.987H56.0774V1.287H44.3924L43.6133 23.017C43.5314 25.764 43.0804 27.117 40.4154 27.117V30.028H40.9484C45.3354 29.987 46.5654 27.404 46.7294 22.853L47.3854 4.198H52.8794Z" fill="white"/>
<path d="M59.2481 23.058C59.2481 27.404 61.4211 30.274 65.8081 30.274C70.2361 30.274 72.4091 27.404 72.4091 23.058V8.216C72.4091 3.829 70.2361 1 65.8081 1C61.4211 1 59.2481 3.829 59.2481 8.216V23.058ZM62.4051 8.052C62.4051 5.469 63.5121 3.911 65.8081 3.911C68.1451 3.911 69.2111 5.469 69.2111 8.052V23.222C69.2111 25.846 68.1451 27.363 65.8081 27.363C63.5121 27.363 62.4051 25.846 62.4051 23.222V8.052Z" fill="white"/>
<path d="M92.6907 33.923V27.158H90.5177V1.287H78.9967L77.8897 22.976C77.8077 24.739 77.6027 26.051 76.6187 27.158H74.7737V33.923H77.8487V29.987H89.5747V33.923H92.6907ZM81.9487 4.198H87.2787V27.158H79.6937C80.5957 26.215 80.8827 24.985 81.0057 22.935L81.9487 4.198Z" fill="white"/>
<path d="M106.149 7.15V29.987H109.019V1.287H105.452L100.86 14.776L98.3182 22.689V1.287H95.4892V29.987H98.8102L103.033 16.744L106.149 7.15Z" fill="white"/>
<path d="M121.942 17.728V29.987H125.14V1.287H118.744C114.234 1.287 112.348 3.583 112.348 7.847V10.184C112.348 13.341 113.455 15.309 115.874 16.088C113.291 16.867 112.307 18.999 112.307 22.074V26.543C112.307 27.814 112.225 29.003 111.733 29.987H114.972C115.341 29.167 115.505 28.429 115.505 26.502V21.992C115.505 18.753 117.022 17.728 119.687 17.728H121.942ZM121.942 4.198V14.817H119.523C117.022 14.817 115.505 13.997 115.505 10.881V8.134C115.505 5.551 116.448 4.198 118.826 4.198H121.942Z" fill="white"/>
<path d="M91.0176 0.787109V26.6582H93.1904V34.4229H89.0742V30.4873H78.3486V34.4229H74.2734V26.6582H76.3857C77.1277 25.7246 77.3138 24.6045 77.3906 22.9531V22.9502L78.4971 1.26172L78.5215 0.787109H91.0176ZM65.8086 0.5C68.134 0.5001 69.9344 1.2473 71.1455 2.63379C72.3472 4.00959 72.9092 5.94669 72.9092 8.21582V23.0576C72.9092 25.3073 72.3471 27.2439 71.1465 28.624C69.9364 30.0151 68.1363 30.7743 65.8086 30.7744C63.4998 30.7744 61.7094 30.0141 60.5049 28.623C59.3102 27.2432 58.748 25.3073 58.748 23.0576V8.21582C58.7481 5.94667 59.31 4.01027 60.5059 2.63477C61.7114 1.2482 63.502 0.5 65.8086 0.5ZM56.5771 0.787109V30.4873H52.3789V4.69824H47.8682L47.2295 22.8701V22.8711C47.1468 25.1647 46.7956 27.0772 45.8281 28.4238C44.8308 29.8117 43.2507 30.5068 40.9531 30.5283H39.915V26.6172H40.415C41.6675 26.6172 42.2438 26.3028 42.5674 25.8193C42.9335 25.2723 43.0719 24.3877 43.1133 23.002V22.999L43.8926 1.26953L43.9102 0.787109H56.5771ZM9.87695 0.787109L9.95898 1.18652L14.1748 21.6816L18.2441 1.18945L18.3242 0.787109H23.7041V30.4873H19.6699V12.0146L16.1094 30.043L16.0303 30.4463H12.1377L12.0547 30.0479L8.28809 11.9609V30.4873H4.5V0.787109H9.87695ZM38.8096 0.787109V4.69824H30.2002V13.4971H37.2109V17.3672H30.2002V26.5762H38.8096V30.4873H26.002V0.787109H38.8096ZM98.8184 0.787109V19.4961L100.384 14.623L100.387 14.6152L104.979 1.12598L105.095 0.787109H109.52V30.4873H105.649V10.3076L103.509 16.8945L103.51 16.8955L99.2861 30.1387L99.1758 30.4873H94.9893V0.787109H98.8184ZM125.64 0.787109V30.4873H121.441V18.2275H119.687C118.402 18.2275 117.512 18.4781 116.937 19.0117C116.369 19.5385 116.005 20.44 116.005 21.9922V26.502C116.005 28.4634 115.838 29.2814 115.428 30.1924L115.295 30.4873H110.924L111.285 29.7637C111.72 28.8941 111.807 27.8108 111.807 26.543V22.0742C111.807 20.4909 112.059 19.0934 112.686 17.9756C113.136 17.1718 113.77 16.5327 114.602 16.0771C113.832 15.6406 113.221 15.0428 112.772 14.2812C112.133 13.1941 111.848 11.8148 111.848 10.1836V7.84668C111.848 5.65236 112.332 3.86465 113.489 2.62695C114.653 1.38262 116.409 0.787185 118.743 0.787109H125.64ZM65.8086 4.41113C64.7836 4.41113 64.0895 4.75229 63.6377 5.32324C63.1704 5.91373 62.9053 6.82116 62.9053 8.05176V23.2217C62.9053 24.4746 63.1712 25.3808 63.6367 25.9648C64.0865 26.5291 64.7794 26.8633 65.8086 26.8633C66.8602 26.8632 67.55 26.5276 67.9932 25.9668C68.4534 25.3841 68.7109 24.4785 68.7109 23.2217V8.05176C68.7109 6.8173 68.4541 5.91039 67.9922 5.32129C67.547 4.75377 66.856 4.41124 65.8086 4.41113ZM81.5049 22.96V22.9648C81.411 24.5293 81.22 25.7079 80.6826 26.6582H86.7783V4.69824H82.4238L81.5049 22.96ZM118.825 4.69824C117.733 4.69832 117.071 5.00479 116.663 5.51074C116.236 6.04043 116.005 6.88631 116.005 8.13379V10.8809C116.005 12.3673 116.366 13.1787 116.901 13.6387C117.454 14.1132 118.306 14.3174 119.522 14.3174H121.441V4.69824H118.825Z" stroke="black"/>
</g>
<defs>
<filter id="filter0_d_1_8" x="0" y="0" width="130.14" height="42.923" filterUnits="userSpaceOnUse" color-interpolation-filters="sRGB">
<feFlood flood-opacity="0" result="BackgroundImageFix"/>
<feColorMatrix in="SourceAlpha" type="matrix" values="0 0 0 0 0 0 0 0 0 0 0 0 0 0 0 0 0 0 127 0" result="hardAlpha"/>
<feOffset dy="4"/>
<feGaussianBlur stdDeviation="2"/>
<feComposite in2="hardAlpha" operator="out"/>
<feColorMatrix type="matrix" values="0 0 0 0 0 0 0 0 0 0 0 0 0 0 0 0 0 0 0.25 0"/>
<feBlend mode="normal" in2="BackgroundImageFix" result="effect1_dropShadow_1_8"/>
<feBlend mode="normal" in="SourceGraphic" in2="effect1_dropShadow_1_8" result="shape"/>
</filter>
</defs>
</svg>
